#!OML:ASF H:\ManfredETheater\Project 1\Capture day 1\Session 1\subject.ASF
:FULLY-SPECIFIED
:DEGREES
991
root 0.924281 18.2138 -4.48386 -9.71401 11.4664 0.0702436
lowerback 11.2951 0.225722 3.11864
upperback -0.0740696 0.779025 0.966698
thorax -6.39715 0.299854 -0.871397
lowerneck -13.2198 -4.61437 -4.98101
upperneck 25.3081 -5.54103 0.946468
head 10.4559 -2.89731 0.463593
rclavicle -2.38542e-014 -9.93923e-015
rhumerus -39.114 -2.34909 -56.0231
rradius 54.3266
rwrist 0.785041
rhand -14.0808 -9.70018
rfingers 7.12502
rthumb 12.0512 -39.3332
lclavicle -2.38542e-014 -9.93923e-015
lhumerus -42.0836 18.014 48.6279
lradius 60.6185
lwrist -5.58061
lhand -20.4473 0.434993
lfingers 7.12502
lthumb 5.90799 30.3326
rfemur 10.6339 -9.77577 26.6924
rtibia 11.2612
rfoot -7.82806 -3.55767
rtoes 23.33
lfemur -68.1097 3.61232 -1.62961
ltibia 28.7786
lfoot 1.26781 5.58226
ltoes -9.38731
992
root 0.923368 18.2131 -4.48869 -9.75945 11.4475 0.0800829
lowerback 11.3501 0.231392 3.10232
upperback -0.0332452 0.78517 0.959162
thorax -6.38469 0.303832 -0.871536
lowerneck -13.2701 -4.62652 -4.99022
upperneck 25.2423 -5.57037 1.01238
head 10.4448 -2.90351 0.48392
rclavicle 1.07841e-014 -9.93923e-015
rhumerus -39.2344 -2.39582 -55.9999
rradius 54.4122
rwrist 0.75214
rhand -14.2452 -9.66536
rfingers 7.12502
rthumb 11.8927 -39.3076
lclavicle 1.07841e-014 -9.93923e-015
lhumerus -42.0302 18.1432 48.6151
lradius 60.481
lwrist -5.57525
lhand -20.506 0.457684
lfingers 7.12502
lthumb 5.85135 30.3569
rfemur 10.6056 -9.77378 26.6773
rtibia 11.3869
rfoot -7.88596 -3.58408
rtoes 23.2935
lfemur -68.2931 3.67575 -1.63664
ltibia 29.2919
lfoot 1.5748 4.50127
ltoes -8.89567
993
root 0.922963 18.2115 -4.49287 -9.78563 11.4256 0.104154
lowerback 11.3851 0.238676 3.07367
upperback 0.00349554 0.790715 0.946208
thorax -6.36536 0.307868 -0.870167
lowerneck -13.3089 -4.63661 -5.00063
upperneck 25.1692 -5.59804 1.08248
head 10.4289 -2.90865 0.506469
rclavicle 1.26725e-014 -1.19271e-014
rhumerus -39.3655 -2.45108 -55.9674
rradius 54.4476
rwrist 0.739863
rhand -14.391 -9.64974
rfingers 7.12502
rthumb 11.7521 -39.3001
lclavicle 1.26725e-014 -1.19271e-014
lhumerus -41.9635 18.26 48.6185
lradius 60.3536
lwrist -5.57471
lhand -20.5768 0.485318
lfingers 7.12502
lthumb 5.78291 30.3864
rfemur 10.5305 -9.7558 26.6509
rtibia 11.5813
rfoot -7.9881 -3.60312
rtoes 23.262
lfemur -68.4965 3.80006 -1.74883
ltibia 29.9561
lfoot 1.87651 3.35484
ltoes -8.47871
994
root 0.923127 18.209 -4.49638 -9.79096 11.4063 0.143258
lowerback 11.3992 0.245285 3.03204
upperback 0.0341717 0.792537 0.927462
thorax -6.34093 0.310395 -0.866789
lowerneck -13.3363 -4.64347 -5.01013
upperneck 25.0922 -5.62212 1.15368
head 10.4093 -2.91204 0.530031
rclavicle 7.90169e-015 2.78299e-015
rhumerus -39.5064 -2.51104 -55.9269
rradius 54.4336
rwrist 0.753352
rhand -14.5112 -9.65371
rfingers 7.12502
rthumb 11.6362 -39.3106
lclavicle 7.90169e-015 2.78299e-015
lhumerus -41.8881 18.3618 48.6365
lradius 60.2366
lwrist -5.57871
lhand -20.6584 0.517313
lfingers 7.12502
lthumb 5.70417 30.4205
rfemur 10.4067 -9.72322 26.612
rtibia 11.845
rfoot -8.13327 -3.61589
rtoes 23.2368
lfemur -68.7235 3.97422 -1.96248
ltibia 30.7732
lfoot 2.17009 2.18871
ltoes -8.16992
995
root 0.923896 18.2057 -4.49925 -9.77599 11.3959 0.196274
lowerback 11.394 0.248595 2.97835
upperback 0.0574495 0.787431 0.903394
thorax -6.31378 0.309767 -0.86091
lowerneck -13.353 -4.64616 -5.0172
upperneck 25.0146 -5.64083 1.22299
head 10.3871 -2.91307 0.553472
rclavicle 3.5334e-014 -4.37326e-015
rhumerus -39.6567 -2.5728 -55.8788
rradius 54.3725
rwrist 0.794957
rhand -14.5983 -9.67671
rfingers 7.12502
rthumb 11.5522 -39.3383
lclavicle 3.5334e-014 -4.37326e-015
lhumerus -41.8081 18.4471 48.6682
lradius 60.1304
lwrist -5.58566
lhand -20.746 0.552479
lfingers 7.12502
lthumb 5.61961 30.458
rfemur 10.2361 -9.67686 26.5617
rtibia 12.1736
rfoot -8.31787 -3.62637
rtoes 23.219
lfemur -68.9762 4.17936 -2.26019
ltibia 31.7459
lfoot 2.46128 1.04884
ltoes -7.96894
996
root 0.925264 18.2015 -4.50159 -9.7435 11.4001 0.259366
lowerback 11.3729 0.245995 2.91589
upperback 0.0729142 0.772651 0.875596
thorax -6.28634 0.304522 -0.852283
lowerneck -13.3618 -4.64435 -5.02073
upperneck 24.9401 -5.653 1.28697
head 10.364 -2.91148 0.575455
rclavicle -1.37658e-014 2.06736e-014
rhumerus -39.8163 -2.6345 -55.822
rradius 54.2683
rwrist 0.864486
rhand -14.6448 -9.71723
rfingers 7.12502
rthumb 11.5073 -39.3814
lclavicle -1.37658e-014 2.06736e-014
lhumerus -41.7271 18.5149 48.7134
lradius 60.0355
lwrist -5.59395
lhand -20.833 0.588782
lfingers 7.12502
lthumb 5.53558 30.4965
rfemur 10.0253 -9.61664 26.5043
rtibia 12.5568
rfoot -8.53617 -3.6411
rtoes 23.2094
lfemur -69.2544 4.39228 -2.6141
ltibia 32.8749
lfoot 2.76283 -0.0234268
ltoes -7.83452
997
root 0.927185 18.1963 -4.50353 -9.69826 11.4235 0.326957
lowerback 11.3411 0.235339 2.84915
upperback 0.0810093 0.746325 0.846482
thorax -6.26107 0.293613 -0.840656
lowerneck -13.366 -4.63824 -5.02013
upperneck 24.872 -5.65805 1.34222
head 10.3418 -2.90731 0.594655
rclavicle -7.8023e-015 2.42517e-014
rhumerus -39.9848 -2.69525 -55.7547
rradius 54.1265
rwrist 0.958971
rhand -14.6437 -9.7737
rfingers 7.12502
rthumb 11.5083 -39.4378
lclavicle -7.8023e-015 2.42517e-014
lhumerus -41.6478 18.5651 48.7722
lradius 59.9529
lwrist -5.60181
lhand -20.9116 0.623642
lfingers 7.12502
lthumb 5.45969 30.5333
rfemur 9.78458 -9.54076 26.4465
rtibia 12.9797
rfoot -8.78078 -3.66851
rtoes 23.2062
lfemur -69.5548 4.58965 -2.99164
ltibia 34.1565
lfoot 3.0932 -0.997222
ltoes -7.70327
998
root 0.929557 18.1903 -4.50524 -9.64585 11.4694 0.393517
lowerback 11.304 0.215137 2.78224
upperback 0.0831081 0.707381 0.818651
thorax -6.23967 0.276422 -0.825506
lowerneck -13.3696 -4.62863 -5.01605
upperneck 24.8126 -5.65623 1.3867
head 10.3219 -2.90095 0.610311
rclavicle 5.46658e-015 -1.19271e-015
rhumerus -40.1623 -2.75505 -55.6744
rradius 53.9532
rwrist 1.07338
rhand -14.5893 -9.84451
rfingers 7.12502
rthumb 11.5608 -39.5057
lclavicle 5.46658e-015 -1.19271e-015
lhumerus -41.572 18.5981 48.8455
lradius 59.8838
lwrist -5.60849
lhand -20.9741 0.65312
lfingers 7.12502
lthumb 5.39933 30.5643
rfemur 9.52642 -9.44633 26.3954
rtibia 13.4253
rfoot -9.04427 -3.71805
rtoes 23.2069
lfemur -69.8713 4.75122 -3.36282
ltibia 35.5813
lfoot 3.47419 -1.8578
ltoes -7.50733
